<svg width="120mm" height="120mm" version="1.1" viewBox="0 0 120 120" xmlns="http://www.w3.org/2000/svg" xmlns:cc="http://creativecommons.org/ns#" xmlns:dc="http://purl.org/dc/elements/1.1/" xmlns:rdf="http://www.w3.org/1999/02/22-rdf-syntax-ns#"><metadata><rdf:RDF><cc:Work rdf:about=""><dc:format>image/svg+xml</dc:format><dc:type rdf:resource="http://purl.org/dc/dcmitype/StillImage"/><dc:title/></cc:Work></rdf:RDF></metadata><g><rect x="6.2172e-15" y="6.2172e-15" width="120" height="120" ry="10" fill="#ccc" stroke-width=".26458"/><path transform="scale(.26458)" d="m31.393 452.42c-11.507-1.9517-22.417-10.587-27.749-21.962l-2.7073-5.7761v-396.02l3.3139-6.7314c3.7208-7.5581 10.473-14.303 18.122-18.102l4.8286-2.3984h399.01l5.6816 2.7902c7.0104 3.4428 14.292 11.064 17.875 18.708l2.7073 5.7761v395.98l-2.9304 6.3458c-3.7218 8.0597-12.331 16.275-20.521 19.58l-5.8433 2.3585-193.44 0.1426c-106.39 0.0784-195.65-0.2313-198.34-0.68826z" fill="#ccc" stroke-width="1.0102"/><text x="100.96397" y="54.672153" fill="#666666" font-family="sans-serif" font-size="21.167px" stroke-width=".26458" text-align="center" text-anchor="middle" style="line-height:1.25" xml:space="preserve"><tspan x="59.824299" y="54.672153" text-align="center">Shaka</tspan><tspan x="59.824299" y="81.130524" text-align="center">Scheme</tspan></text></g></svg>
